<svg xmlns="http://www.w3.org/2000/svg" xmlns:xlink="http://www.w3.org/1999/xlink" height="286" viewBox="0 0 313 286" width="313"><svg height="72" viewBox="0 0 124 72" width="124" x="5" y="5"><path fill="#231F20" d="M16.885 20.398h2.978v2.958h-2.978z"/><path fill="#231F20" d="M16.836 36.256h17v-.006c3.486-.105 4.759-2.183 4.759-4.729v-11.15h-2.978v11.15c0 .295-.073.592-.224.864-.297.541-.669.913-1.836.913h-6.232c-.348-.32-.596-.766-.769-1.333-.424-1.307-.075-2.344 1.042-3.183.397-.272.893-.418 1.512-.418 1.244 0 2.211.541 2.905 1.602l2.059-2.268a5.916 5.916 0 0 0-3.474-2.221c-1.49-.344-2.854-.172-4.144.471-1.217.739-2.109 1.7-2.605 2.886a6.046 6.046 0 0 0-.497 2.392c0 .691.149 1.381.423 2.073h-2.25v-8.066h-4.689a4.734 4.734 0 0 0-4.765 4.734h-.024v1.555h.024c0 .641.1 1.231.322 1.776h-2.362v-5.822h-.051v-2.243H5.291c-2.632 0-4.765 2.096-4.791 4.711v6.313h6.428a4.652 4.652 0 0 1-4.518 3.529H.699v2.96h1.712c3.822 0 6.999-2.837 7.545-6.489h6.707m-9.66-2.96H3.478v-3.331h.025c0-.319.073-.616.199-.862a1.827 1.827 0 0 1 1.588-.914h1.712v5.107zm8.046-1.776h-.025v-1.555h.025c0-.295.075-.592.199-.837.322-.568.893-.939 1.588-.939h1.712v5.107h-1.812c-.272 0-.546-.1-.767-.224a1.739 1.739 0 0 1-.92-1.552M40.68 20.372h2.977v15.885H40.68zM53.007 20.398h2.978v2.958h-2.978zM57.026 20.398h2.978v2.958h-2.978zM81.467 20.443h2.977v2.96h-2.977zM92.333 20.398h2.978v2.958h-2.978z"/><path fill="#231F20" d="M107.475 34.802v-7.327h-4.691c-2.63 0-4.764 2.122-4.764 4.736v1.086h-.922c-.67 0-1.266-.395-1.565-.963a1.64 1.64 0 0 1-.222-.84v-5.672h-2.978v5.672c0 .322-.073.619-.222.865a1.81 1.81 0 0 1-1.565.938h-.594v-2.641a4.725 4.725 0 0 0-4.567-4.734h-4.343a4.848 4.848 0 0 0-3.275 1.282v-6.809h-2.98v12.901h-2.306v.002h-.411v-5.822h-4.69c-2.629 0-4.764 2.122-4.764 4.736v1.086H59.93V25.23h-4.691c-2.629 0-4.764 2.096-4.764 4.713h-.025v1.579h.025c0 2.614 2.135 4.734 4.764 4.734h7.576a4.757 4.757 0 0 0 4.518 3.281h.024a4.762 4.762 0 0 0 4.518-3.281h2.507v-.002h.407v.027h2.98v-.027H89.73v.002h.818a4.714 4.714 0 0 0 3.277-1.307 4.762 4.762 0 0 0 2.953 1.295v.012h1.441a4.761 4.761 0 0 0 4.518 3.281h.025a4.73 4.73 0 0 0 4.74-4.734m-50.549-1.506H55.19a2.22 2.22 0 0 1-.818-.224 1.77 1.77 0 0 1-.918-1.552h-.027v-1.555h.027c0-.32.073-.617.197-.862a1.83 1.83 0 0 1 1.588-.914h1.714v5.107zm12.141 1.726c-.025.246-.075.444-.199.641-.299.541-.869.913-1.539.913s-1.266-.371-1.563-.913a1.721 1.721 0 0 1-.224-.862v-2.591h.025c0-.32.075-.592.222-.864a1.759 1.759 0 0 1 1.563-.913h1.714v4.589zm17.88-1.728h-9.207v-3.009a1.784 1.784 0 0 1 1.762-1.407h5.658c.993 0 1.787.789 1.787 1.776v2.64zm17.522 1.728a1.72 1.72 0 0 1-.199.641 1.78 1.78 0 0 1-1.538.913 1.756 1.756 0 0 1-1.563-.913 1.723 1.723 0 0 1-.226-.862v-2.591h.025c0-.32.075-.592.2-.864a1.825 1.825 0 0 1 1.587-.913h1.712v4.589zM17.671 41.973h2.381v2.366h-2.381zM14.458 41.973h2.381v2.366h-2.381zM38.871 56.939h2.381v2.365h-2.381zM42.083 56.939h2.381v2.365h-2.381zM57.345 50.865c0 .236-.058.472-.178.69-.238.435-.536.73-1.468.73H44.464v-.02a1.414 1.414 0 0 1-1.251-.749 1.302 1.302 0 0 1-.178-.67v-4.535h-2.379v4.535c0 .255-.059.491-.18.688-.238.433-.713.75-1.249.75H19.993v-6.448h-3.751c-2.103 0-3.808 1.677-3.808 3.765h-.02v1.263h.02c0 2.09 1.706 3.785 3.808 3.785h22.985a3.863 3.863 0 0 0 2.619-1.044 3.878 3.878 0 0 0 2.619 1.024v.02h11.274c2.926-.015 3.988-1.705 3.988-3.785v-8.912h-2.381M17.612 52.285h-1.409a1.784 1.784 0 0 1-.653-.177 1.417 1.417 0 0 1-.735-1.243h-.02v-1.241h.02c0-.256.059-.494.16-.69a1.461 1.461 0 0 1 1.268-.732h1.37v4.083zM70.696 45.837h-3.769c-2.103 0-3.807 1.677-3.807 3.765h-.02v5.048h5.137c-.377 1.617-1.865 2.82-3.61 2.82h-1.37v2.366h1.37c3.37 0 6.089-2.722 6.089-6.053v-6.151h-.02m-2.381 4.653h-2.836v-2.661h.019c0-.256.061-.494.18-.69a1.432 1.432 0 0 1 1.249-.732h1.388v4.083zM87.597 50.865c0 .236-.059.472-.18.69-.239.435-.536.73-1.468.73h-3.438c-1.152 0-1.507-.434-1.667-1.044-.02-.12-.041-.238-.059-.358v-.019a6.09 6.09 0 0 0-6.011-5.028v2.365a3.726 3.726 0 0 1 3.63 2.82c-.019.199-.08.376-.18.533-.236.435-.713.73-1.247.73h-3.593v2.365h3.593a3.846 3.846 0 0 0 2.617-1.024c.589.548.981.919 2.281 1.005v.019h4.4v-.007c2.709-.121 3.701-1.768 3.701-3.778v-8.912h-2.379M92.868 41.955h2.381v12.697h-2.381z"/></svg><svg height="72" viewBox="0 0 107 72" width="107" x="134" y="5"><path fill="#231F20" d="M79.267 51.556c0 .889.262 1.317 1.084 1.317.824 0 1.088-.428 1.088-1.317v-6.022c0-.889-.264-1.317-1.088-1.317-.822 0-1.084.428-1.084 1.317v6.022zm-2.04-6.072c0-1.68.986-3.046 3.125-3.046 2.139 0 3.128 1.366 3.128 3.046v6.121c0 1.68-.99 3.046-3.128 3.046-2.139 0-3.125-1.366-3.125-3.046v-6.121zM69.862 46.569v-.922c0-1.003-.461-1.431-.988-1.431-.824 0-1.086.428-1.086 1.317v6.024c0 .889.262 1.317 1.086 1.317.741 0 .988-.428.988-1.201V50.24h2.04v1.366c0 1.68-.988 3.046-3.028 3.046-2.141 0-3.126-1.366-3.126-3.046v-6.123c0-1.68.986-3.046 3.126-3.046 2.04 0 3.028 1.482 3.028 3.258v.873h-2.04zM17.523 42.608h2.048v11.928h-2.048zM21.562 54.536V42.608h1.9l2.496 6.823h.034v-6.823h1.849v11.928h-1.784l-2.612-7.451h-.032v7.451zM30.769 44.393h-1.983v-1.784H34.8v1.784h-1.983v10.144h-2.048zM35.746 54.536V42.608h5.486v1.784h-3.436v3.073h2.641v1.784h-2.641v3.505h3.666v1.782zM44.727 47.96h.727c1.106 0 1.52-.414 1.52-1.831 0-1.423-.414-1.837-1.52-1.837h-.727v3.668zm0 6.576h-2.048V42.608h2.874c2.297 0 3.471.974 3.471 3.521 0 1.914-.743 2.691-1.437 3.004l1.733 5.403h-2.082l-1.455-4.94a9.352 9.352 0 0 1-1.057.049v4.891zM50.611 54.536V42.608h1.901l2.494 6.823h.033v-6.823h1.851v11.928h-1.784l-2.61-7.451h-.033v7.451zM60.698 50.109h1.652l-.81-5.123h-.032l-.81 5.123zm-.663 4.427h-1.983l2.198-11.928h2.545l2.198 11.928h-1.981l-.365-2.643H60.4l-.365 2.643zM73.366 42.608h2.048v11.928h-2.048zM85.291 54.536V42.608h1.9l2.494 6.823h.032v-6.823h1.853v11.928h-1.786l-2.608-7.451h-.034v7.451zM95.396 50.109h1.654l-.81-5.123h-.034l-.81 5.123zm-.66 4.427h-1.983l2.198-11.928h2.545l2.198 11.928h-1.985l-.363-2.643h-2.245l-.365 2.643zM100.878 54.536V42.608h2.047v10.146h3.223v1.782zM60.809 17.592h3.402V37.4h-3.402zM73.183 22.475c-.138-1.701-1.043-2.194-1.812-2.194-1.096 0-1.699.712-1.699 1.948 0 3.373 6.913 4.993 6.913 10.369 0 3.264-2.196 5.076-5.378 5.076-3.154 0-4.966-2.525-5.102-5.488l3.237-.465c.138 2.003.932 2.991 2.028 2.991 1.181 0 1.977-.631 1.977-1.812 0-3.923-6.915-4.966-6.915-10.643 0-3.156 1.922-4.938 5.267-4.938 2.772 0 4.418 2.003 4.719 4.8l-3.235.356zM80.271 20.555h-3.292v-2.963h9.986v2.963h-3.292V37.4h-3.402zM90.538 16.549h-2.279l2.168-3.951h3.702l-3.591 3.951zm-2.03 1.043h3.402V37.4h-3.402V17.592zM96.764 37.398h-3.292l3.649-19.806h4.225l3.649 19.806h-3.292l-.603-4.388h-3.73l-.606 4.388zm1.098-7.351h2.742l-1.342-8.504h-.055l-1.345 8.504zM21.482 30.042h2.744l-1.344-8.512h-.053l-1.347 8.512zm-1.098 7.357h-3.296l3.653-19.821h4.228l3.651 19.821h-3.294l-.605-4.394h-3.734l-.603 4.394zM44.13 17.578v19.821h-2.966V21.915h-.054l-3.075 15.484h-1.648l-3.073-15.484h-.055v15.484h-2.965V17.578h4.475l2.415 11.585h.055l2.417-11.585zM47.253 37.399V17.578h3.158l4.146 11.339h.055V17.578h3.073v19.821H54.72l-4.337-12.383h-.055v12.383z"/></svg><svg height="72" viewBox="0 0 107 72" width="107" x="5" y="82"><path fill="#231F20" d="M21.902 29.918l1.362-8.617h.055l1.362 8.617h-2.779zM21.153 17.3l-3.696 20.066h3.335l.611-4.447h3.779l.611 4.447h3.337L25.432 17.3h-4.279zM33.824 21.691h.056l3.112 15.676h1.67l3.115-15.676h.051v15.676h3.004V17.301H40.3l-2.446 11.727h-.056l-2.444-11.727h-4.53v20.066h3zM55.443 28.777h-.057L51.191 17.3h-3.197v20.066h3.112V24.833h.056l4.392 12.533h3.002V17.3h-3.113zM71.335 34.363h-6.171v-5.891h4.446V25.47h-4.446v-5.171h5.784v-3h-9.231v20.068h9.618zM75.945 21.996c0-1.252.611-1.975 1.723-1.975.779 0 1.695.503 1.835 2.226l3.28-.361c-.306-2.837-1.975-4.865-4.782-4.865-3.391 0-5.334 1.806-5.334 5.003 0 5.756 7.002 6.811 7.002 10.783 0 1.197-.806 1.835-2.001 1.835-1.112 0-1.918-.999-2.058-3.03l-3.28.471c.14 3.004 1.973 5.559 5.173 5.559 3.223 0 5.447-1.833 5.447-5.139-.001-5.446-7.005-7.086-7.005-10.507M86.901 37.367h3.448V20.301h3.336v-3H83.566v3h3.335zM100.31 24.942h-.053l-2.419-7.641h-3.505l4.171 11.727v8.339h3.448v-8.339l4.168-11.727h-3.501zM17.909 42.624h2.076v12.092h-2.076zM21.807 54.716V42.624h1.926l2.529 6.916h.034v-6.916h1.876v12.092h-1.809l-2.648-7.554h-.031v7.554zM31.086 44.432h-2.011v-1.809h6.097v1.809h-2.009v10.285h-2.077zM36.094 54.716V42.624h5.561v1.808h-3.486v3.117h2.681v1.807h-2.681v3.551h3.72v1.809zM45.305 54.717h-2.076V42.623h2.914c1.161 0 2.038.274 2.63.822.591.546.887 1.463.887 2.746 0 .491-.041.911-.124 1.256a3.34 3.34 0 0 1-.335.879c-.14.24-.298.434-.469.578a2.199 2.199 0 0 1-.528.337l1.758 5.476h-2.109l-1.475-5.009c-.134.024-.3.037-.495.041-.195.008-.386.01-.578.01v4.958zm.033-6.667h.737c.278 0 .516-.028.712-.083a.951.951 0 0 0 .477-.302c.122-.146.213-.337.268-.578.055-.241.085-.54.085-.897 0-.714-.118-1.202-.353-1.465s-.631-.394-1.189-.394h-.737v3.719zM51.302 54.716V42.624h1.926l2.529 6.916h.033v-6.916h1.877v12.092h-1.81l-2.647-7.554h-.032v7.554zM60.831 54.716H58.82l2.228-12.092h2.58l2.228 12.092h-2.011l-.369-2.679H61.2l-.369 2.679zm.671-4.489h1.674l-.82-5.192h-.034l-.82 5.192zM67.715 44.432h-2.01v-1.809h6.097v1.809h-2.009v10.285h-2.078zM72.924 42.624H75v12.092h-2.076zM76.66 45.555c0-.424.063-.826.191-1.206.128-.378.323-.71.587-.988.262-.28.591-.499.988-.662.396-.162.867-.242 1.415-.242s1.019.081 1.415.242c.396.164.725.382.988.662.262.278.457.609.585.988.128.38.193.783.193 1.206v6.231c0 .424-.065.826-.193 1.204-.128.38-.323.71-.585.99-.262.278-.591.499-.988.66s-.867.244-1.415.244-1.019-.083-1.415-.244-.725-.382-.988-.66a2.652 2.652 0 0 1-.587-.99 3.736 3.736 0 0 1-.191-1.204v-6.231zm2.076 6.18c0 .459.079.796.235 1.013.158.219.447.327.871.327s.714-.108.871-.327c.156-.217.235-.554.235-1.013v-6.129c0-.459-.079-.796-.235-1.013-.158-.219-.447-.327-.871-.327s-.714.108-.871.327c-.156.217-.235.554-.235 1.013v6.129zM84.608 54.716V42.624h1.926l2.529 6.916h.034v-6.916h1.877v12.092h-1.81l-2.647-7.554h-.032v7.554zM93.978 54.716h-2.011l2.228-12.092h2.58l2.228 12.092h-2.011l-.369-2.679h-2.277l-.368 2.679zm.67-4.489h1.674l-.82-5.192h-.034l-.82 5.192zM99.893 54.716V42.624h2.078v10.283h3.264v1.809z"/></svg><svg height="72" viewBox="0 0 62 72" width="62" x="117" y="82"><path fill="#231F20" d="M40.526 40.123c-.227-.099-.256-.81-.386-.81-.197 0-.298.647-.68.743-.394.067-.976-.42-1.141-.294-.164.134.367 1.055-.509 1.055-.262 0-.396-.298-.396-.524v-7.075s.03-.01.422.087c.258.067.518.195.518.554 0 .191-.069.582.063.649.136.067.227-.067.294-.099 1.199-.875 1.492.68 1.751.68.229 0 .197-1.068.52-1.068.262-.101 2.76 1.102 2.76 1.883 0 .162-.327.191-.355.357-.032.229.584.323.485.747-.035.262-.617.585-.457.745.168.164.946-.16 1.011-.16.162 0 .191.256.191.355 0 1.43-3.341 2.502-4.091 2.175m-8.894 1.132c-.195-.319-.099-.873-.292-.873-.097 0-.615.781-.911.781-.29 0-.777-.554-.972-.554-.13 0 .13.781-.13 1.102-.164.229-1.721.396-1.721.199V30.87c0-.518.392-.714.745-.714l5.811-.002c.712 0 1.005.225 1.005.972l.006 9.908c.001.323-3.413.453-3.541.221m3.54 13.994c0 .684-.231.844-.812.716l-6.2-1.234c-.359-.063-.554-.292-.554-.68V42.818c0-.292 1.007-.325 1.169-.195.294.26.195 1.201.388 1.201.262 0 .942-1.137 1.236-1.137.617 0 1.037.357 1.167.294.132-.067.132-.585.292-.716.227-.158.909-.158 1.266-.197a64.548 64.548 0 0 0 1.658-.128c.422 0 .39.296.39.913v12.396zm-6.688-32.592c0-4.481 6.624-7.045 7.077-9.318.487.455.552 1.201.552 1.851 0 2.726-4.739 7.304-4.739 10.615 0 .359.032.453.032.682 0 .323-.13.39-.193.39-.784.001-2.729-1.527-2.729-4.22m-3.669 28.017c-.518 0-.844-1.041-.974-1.005-.162.034.035.875-.162 1.005-.162.16-3.604-1.429-3.864-1.685-.229-.229.099-.552 0-.781-.065-.195-.587-.132-.745-.231-.132-.128.158-.716-.032-.842-.168-.099-.52.585-.749.256-.101-.13-.128-.355-.128-.647 0-1.981 2.107-2.791 3.538-3.278.582-.197.384.55.582.584.227.065.26-.357.52-.357.197 0 .944.357 1.104.227.13-.097-.388-.584-.227-.779.197-.162 1.703-.446 1.689-.059l.004 6.937c.002.728-.556.655-.556.655m20.389-11.948c.357-.615.357-1.362.487-1.656.191-.323.907-.26.907-.487 0-.095-.518-.225-.716-.355-.384-.227-.254-1.396-.449-1.396-.296 0-.587.81-.881.455-.516-.651-2.661-1.885-3.633-2.241-.359-.13.26-1.201.099-1.301-.164-.097-.585.653-1.202.522-.487-.099-.26-.976-.52-.976-.13 0-.619 1.234-.976 1.135-.39-.097-.905-.237-.905-.237v-3.235c0-.552-.371-.98-.848-.976H33.06c-.974 0-.909-.714-.909-.877 0-4.317 6.267-5.031 6.267-10.679 0-2.468-1.557-4.124-3.375-5.587-.101-.063 0 .359 0 .52 0 2.63-9.774 3.994-9.774 10.065 0 5.289 5.261 5.516 5.261 6.33 0 .162-.323.227-.357.227h-4.025c-.422 0-.789.26-.783.968l.004 3.253c-.392.13-.909-.455-1.171-.455-.13 0-.063 1.007-.292 1.139-.195.095-3.862 1.394-4.191 1.427-.515.097-.384-.812-.676-.812-.264 0-.264.909-.913.909-.388 0-.712-.359-1.003-.359-.195 0 .42.749.42.974 0 .619-1.199.844-1.199 1.268 0 .227 1.134-.097 1.297-.097.584 0 .52.684.743.684.229 0 .39-.785.587-.911.386-.227.844.162 1.039.162.323 0-.26-.781.034-.911 0 0 3.956-1.685 4.219-1.557.227.132.197.52.455.651.258.128.651-.909.651-.262v7.956c-.457.288-1.431.455-1.952.455-.256 0-.13-.846-.292-.846-.26 0-.52.714-.909.714-.357 0-.875-.875-1.23-.875-.227 0 .418 1.102.03 1.297-1.496.749-3.864 1.463-3.864 3.828 0 .491.262 1.078.16 1.234-.093.231-.611.684-.582.879 0 .195.974.128 1.171.424.095.158.162.873.359.873.158 0 .58-.55.94-.357 1.133.684 3.113 1.427 4.025 1.92.223.13.095.842.223.907.262.13.779-.682 1.595-.229.164.067.325.327.325.619l-.004 2.655c0 .487.225.615.487.68l9.679 1.926s.86.193 1.151.193c.337.014.755-.002.731-.816l-.004-6.034c0-.061.077-.209.207-.209.568-.002.282 1.636.41 1.636.258 0 .422-1.104.749-1.104.453 0 .749.422.938.325.164-.097-.093-.619-.093-.944 0-.29.84-.42 1.881-.81.909-.321 1.656-.68 1.95-.68.225 0 .384.615.584.615.162 0 .193-.808.552-.808.29 0 .938.451 1.104.321.128-.095-.325-.714.03-.976.262-.162.877-.548.877-.712 0-.097-1.201-.132-1.266-.132-.227-.063-.487-.777-.653-.777-.187 0-.187.714-.483.94-.262.193-.909-.682-1.199-.682-.166 0 .191.651.191 1.173 0 .516-3.146 1.524-3.568 1.524-.651 0-.684-.812-.814-.812-.195 0-.189.992-.907.992a.455.455 0 0 1-.487-.461v-7.795c0-.223.065-.526.487-.544.534-.024.548 1.185.743 1.185.357 0 .554-1.201 1.234-1.201.52 0 .942.716 1.268.716.227 0-.388-.747-.388-1.106.002-.353 3.215-.223 4.449-2.399"/></svg><svg height="46" viewBox="0 0 50 46" width="50" x="184" y="82"><path fill="#FFF" d="M23.9 13.6l1.5 1.5-7.8 7.9 7.9 7.9-1.6 1.5-9.4-9.4 9.4-9.4z"/><path fill="#FFF" d="M33.9 13.6l1.5 1.5-7.8 7.9 7.9 7.9-1.6 1.5-9.4-9.4 9.4-9.4z"/></svg><svg height="46" viewBox="0 0 50 46" width="50" x="5" y="159"><path fill="#FFF" d="M15.6 24.1l1.5-1.5 7.9 7.8 7.9-7.9 1.5 1.6-9.4 9.4-9.4-9.4z"/><path fill="#FFF" d="M15.6 14.1l1.5-1.5 7.9 7.8 7.9-7.9 1.5 1.6-9.4 9.4-9.4-9.4z"/></svg><svg height="46" viewBox="0 0 50 46" width="50" x="60" y="159"><path fill="#FFF" d="M26.1 32.4l-1.5-1.5 7.8-7.9-7.9-7.9 1.6-1.5 9.4 9.4-9.4 9.4z"/><path fill="#FFF" d="M16.1 32.4l-1.5-1.5 7.8-7.9-7.9-7.9 1.6-1.5 9.4 9.4-9.4 9.4z"/></svg><svg height="17.2" viewBox="0 0 32 18" width="31.3" x="184" y="133"><circle fill="#FFF" cx="15.6" cy="8.6" r="2.1"/><path fill="#FFF" d="M30.7 8.1C27.6 3.6 22 .7 15.9.7h-.6C9.3.7 3.6 3.6.6 8.1l-.4.5.4.5c3.1 4.5 8.7 7.4 14.8 7.4h.6c6.1-.1 11.7-2.9 14.8-7.4l.2-.5-.3-.5zm-15.1 6.5c-3.4 0-6.2-2.7-6.2-6s2.8-6 6.2-6 6.2 2.7 6.2 6-2.8 6-6.2 6zm-13.1-6c1.6-2.1 3.9-3.8 6.6-4.8-1.1 1.3-1.7 3-1.7 4.8s.7 3.5 1.7 4.8c-2.7-1-5-2.6-6.6-4.8zm19.6 4.9c1.1-1.3 1.7-3 1.7-4.8s-.7-3.5-1.7-4.8c2.6 1 4.9 2.7 6.6 4.8-1.6 2.1-3.9 3.7-6.6 4.8z"/></svg><svg height="17.2" viewBox="0 0 32 18" width="31.3" x="115" y="159"><circle cx="15.6" cy="8.6" r="2.1"/><path d="M30.7 8.1C27.6 3.6 22 .7 15.9.7h-.6C9.3.7 3.6 3.6.6 8.1l-.4.5.4.5c3.1 4.5 8.7 7.4 14.8 7.4h.6c6.1-.1 11.7-2.9 14.8-7.4l.2-.5-.3-.5zm-15.1 6.5c-3.4 0-6.2-2.7-6.2-6s2.8-6 6.2-6 6.2 2.7 6.2 6-2.8 6-6.2 6zm-13.1-6c1.6-2.1 3.9-3.8 6.6-4.8-1.1 1.3-1.7 3-1.7 4.8s.7 3.5 1.7 4.8c-2.7-1-5-2.6-6.6-4.8zm19.6 4.9c1.1-1.3 1.7-3 1.7-4.8s-.7-3.5-1.7-4.8c2.6 1 4.9 2.7 6.6 4.8-1.6 2.1-3.9 3.7-6.6 4.8z"/></svg><svg height="25" viewBox="0 0 31 25" width="31" x="5" y="210"><path d="M12.4 12.2l-7 12.4H.1L5 12.2H.5V.4h11.8v11.8zm18.5 0L24 24.6h-5.3l4.9-12.4h-4.5V.4h11.8v11.8z"/></svg><svg height="25" viewBox="0 0 31 25" width="31" x="41" y="210"><path fill="#fff" d="M12.4 12.2l-7 12.4H.1L5 12.2H.5V.4h11.8v11.8zm18.5 0L24 24.6h-5.3l4.9-12.4h-4.5V.4h11.8v11.8z"/></svg><svg height="25" viewBox="0 0 31 25" width="31" x="77" y="210"><path d="M.1 12.8L7 .4h5.3L7.4 12.8h4.5v11.8H.1V12.8zm18.6 0L25.6.4h5.3L26 12.8h4.5v11.8H18.7V12.8z"/></svg><svg height="25" viewBox="0 0 31 25" width="31" x="113" y="210"><path fill="#fff" d="M.1 12.8L7 .4h5.3L7.4 12.8h4.5v11.8H.1V12.8zm18.6 0L25.6.4h5.3L26 12.8h4.5v11.8H18.7V12.8z"/></svg><svg height="21" viewBox="0 0 30 21" width="30" x="115" y="182"><title>youtube-play-dark</title><g fill-rule="nonzero" fill="none"><path fill="#FFF" d="M11.667 14.156l7.946-4.117-7.946-4.146z"/><path fill="#000" opacity=".12" d="M11.667 5.893l6.967 4.654.979-.508z"/><path d="M29.113 4.462s-.288-2.027-1.168-2.919C26.827.372 25.572.366 24.998.297 20.883 0 14.71 0 14.71 0h-.012S8.525 0 4.409.297c-.573.069-1.827.075-2.946 1.246C.583 2.435.295 4.462.295 4.462S0 6.842 0 9.222v2.23c0 2.38.295 4.76.295 4.76s.287 2.026 1.168 2.919c1.119 1.171 2.588 1.134 3.242 1.257 2.353.226 9.999.295 9.999.295s6.18-.009 10.294-.307c.576-.068 1.829-.074 2.947-1.245.88-.893 1.168-2.92 1.168-2.92s.294-2.379.294-4.759v-2.23c0-2.38-.294-4.76-.294-4.76zm-17.446 9.694V5.893l7.946 4.146-7.946 4.117z" fill="#282928"/></g></svg><svg height="20" viewBox="0 0 29 20" width="29" x="150" y="182"><title>youtube-play-red</title><defs><linearGradient x1="50.001%" y1="0%" x2="50.001%" y2="100%" id="a"><stop stop-color="#E52D27" offset="0%"/><stop stop-color="#BF171D" offset="100%"/></linearGradient></defs><g fill="none" fill-rule="evenodd"><path fill="#FFF" fill-rule="nonzero" d="M11.272 13.677L18.949 9.7l-7.677-4.006z"/><path fill="#420000" opacity=".12" d="M11.272 5.694l6.732 4.496.945-.49z"/><path d="M28.129 4.311S27.85 2.353 27 1.491C25.92.359 24.707.353 24.153.287 20.177 0 14.213 0 14.213 0H14.2S8.236 0 4.26.287C3.705.353 2.493.36 1.412 1.491c-.85.862-1.128 2.82-1.128 2.82S0 6.611 0 8.91v2.155c0 2.3.285 4.599.285 4.599s.278 1.958 1.128 2.82c1.081 1.132 2.501 1.096 3.133 1.214 2.273.219 9.66.286 9.66.286s5.97-.009 9.947-.297c.556-.066 1.766-.071 2.847-1.203.85-.862 1.129-2.82 1.129-2.82s.284-2.3.284-4.599V8.91c0-2.3-.284-4.599-.284-4.599zm-16.857 9.366V5.694L18.949 9.7l-7.677 3.977z" fill="url(#a)" fill-rule="nonzero"/></g></svg><svg height="25" viewBox="0 0 25 25" width="25" x="149" y="210"><path d="M4.862 9.586v.139c.107.075.359.05.315-.139-.06-.05-.258-.05-.315 0zM21.384 16.594c.003-.1.05-.148.028-.27.183-.133.167-.29.24-.564.107-.403.591-1.09.179-1.398-.151.139-.044.249-.12.387-.122.23-.46.259-.595.447-.148.208-.195.586-.088.775-.217.242-.349.616-.151.978.274-.012.356-.22.507-.355z"/><path d="M24.072 8.188A12.195 12.195 0 0 0 12.79.341l-.116-.002c-2.195 0-4.25.582-6.03 1.593A12.242 12.242 0 0 0 1.1 8.667a12.158 12.158 0 0 0-.633 3.847v.031c0 .721.066 1.43.186 2.119.167.954.444 1.867.819 2.732 1.863 4.292 6.117 7.301 11.081 7.352.04 0 .079.003.12.003 2.187 0 4.237-.58 6.013-1.587a12.196 12.196 0 0 0 6.189-10.619c0-1.536-.286-3.003-.803-4.357zM16.403 22.26c-.182-.021-.239-.116-.4-.028.007-.157-.274-.028-.286-.173-.453.06-.878.107-1.222.287-.125.066-.217.201-.343.23-.085.015-.204-.041-.286-.029-.252.032-.671.378-.967.429-.135.018-.274-.02-.431 0-.035.015-.076.028-.114.044-.91-.029-1.788-.17-2.622-.416.022-.035.047-.069.031-.145-.45-.27-.768-.673-1.196-.97-.01-.217.173-.242.343-.282-.113-.271-.708-.155-.683.226.006.13.098.12.113.287-.129-.06-.147-.233-.314-.255.078-.054.066-.196-.057-.202-.132-.025-.053.158-.113.202-.142 0-.139-.032-.255 0 .013.176.245.236.368.141.06.1.06.155 0 .259.107.157.371.141.541.11.057.009-.006-.079-.028-.085.06-.076.126.082.142.145a.863.863 0 0 1-.258.065c-.3-.135-.589-.283-.872-.444-.032-.069-.108-.097-.192-.113-.06-.031-.117-.069-.174-.104v-.003l-.009-.003a10.501 10.501 0 0 1-2.078-1.707.18.18 0 0 0-.082-.084 10.442 10.442 0 0 1-2.767-7.097c0-1.042.151-2.046.435-2.997.04.12.034.287.132.35.173-.104-.022-.397-.05-.602 0-.006.002-.015.005-.022.066.183.22.347.271.539.028.11-.038.186-.028.283.035.34.3.378.598.601.142.035.12-.088.227-.084.082.38.639.292.658.736.056.095.189.114.195.258.151-.028.135.11.315.117.053-.044.006-.186.113-.173.145.122.154.38.142.655-.104.26-.457.636-.198.912-.22.227.012.595.198.684.11.415.274.771.513 1.051.24.05.334.24.457.4.003.605.082 1.127.141 1.653.038.287-.066.573-.053.853.016.388.302.64.255 1.055-.048.003-.11-.013-.114.028-.047.174.11.136.142.23.123.406.208.854.598.995.088.013.022-.132.088-.138.028-.076.01.242-.085.226.123.18.504.28.74.198-.252-.182-.485-.387-.627-.683.083-.126.155-.264.227-.397-.016-.138-.16-.141-.227-.23-.025-.12.126-.062.17-.113-.044-.04-.025-.145-.028-.23.035-.038.139-.01.142-.085.013-.141-.227-.038-.198-.198a.578.578 0 0 0 .254.028c.048-.097 0-.189 0-.283.423.145.662-.173.457-.485.082.003.186-.016.23.028.334-.195.444-.617.683-.913.01-.132-.053-.195-.028-.34.107-.176.337-.23.482-.371.129-.013.242.04.343 0 .261-.104.368-.91.315-1.366.107-.085.655-.649.538-.97-.126-.353-.9-.715-1.423-.655-.132-.305-.479-.264-.74-.4-.097-.51-.309-.906-.97-.853-.129-.283-.531-.397-.57-.683-.182-.022-.308.013-.368.113-.107-.07-.16-.038-.314-.028-.051-.104-.161-.142-.199-.255-.132 0-.12.095-.173-.031-.236.107-.472.21-.541.484-.104-.053-.334-.126-.51 0-.306-.248.188-1.108-.542-.884.054-.236.154-.432.198-.68-.034-.026-.069-.038-.097-.05.082-.105.217-.152.422-.133 0-.394-.425-.4-.734-.312-.05-.091-.17-.198-.311-.292a.527.527 0 0 1 .292-.24c.139-.012.142.107.259.114.075-.029.094-.117.084-.23.218-.044.243.05.429 0 .025.24.075.46.17.626.32-.283-.045-.774.17-1.108.157-.242.453-.242.541-.541.016-.095-.019-.133-.028-.198.17-.108.22-.334.315-.517.182-.062.232-.258.424-.311.038-.114-.09-.057-.056-.17.082-.183.33-.205.456-.34.038.044-.025.166.057.226.183-.129.425-.201.598-.343.025-.126-.05-.157-.141-.17.003-.082.12-.05.113-.141-.019-.101-.217-.032-.283-.085.022-.253.264-.114.425-.227.028-.142-.18-.05-.227-.116.176-.097.488-.063.513-.315.255-.037.388-.2.453-.426-.012-.146-.22-.098-.198-.285a.627.627 0 0 1-.254-.027 7.504 7.504 0 0 0-.23-.8.253.253 0 0 0-.174.104c-.006-.003-.009-.007-.016-.01-.028.039-.094.026-.148-.007a10.454 10.454 0 0 1 1.968-.913c.032.041.066.08.135.087-.053.118-.056.167.029.255.116.022.163-.027.258-.027.057.038.072.118.141.141.218-.133.517-.329.428-.598.07-.034.108-.104.139-.18a10.494 10.494 0 0 1 5.657.31c-.094.273.02.74.271.782.195.033.243-.121.457-.17.044.2.17.322.283.455.006.14-.21.055-.17.228.057.175.447.18.57.113.035-.25.022-.546.23-.626a.213.213 0 0 0 0-.065c.198.109.39.224.58.345.03.093.128.154.131.291-.135.008-.088-.162-.23-.143-.185.058-.135.356-.226.513-.343-.126-.652.147-.939-.115.089-.192-.125-.18-.2-.285.075-.204.084-.299 0-.511-.382.02-.331.43-.199.683-.126.011-.334.003-.485.058-.097.112-.113.306-.343.285-.088-.078.097-.141 0-.23-.041-.055-.145-.042-.198-.085-.007-.195-.117-.283-.259-.343.022-.106.038-.201-.113-.198-.019-.121.092-.115.085-.228-.019-.073-.091-.1-.198-.085-.025-.08.04-.074.028-.142-.047-.049-.167-.023-.258-.03-.135.084-.113.322-.227.429-.012.09.139.009.114.113.018.113-.136.036-.142 0-.186.074-.233.231-.457.2.026.108.038.23.029.37.072.072.201.084.254.171.17-.035.293-.105.372-.23V3.92c.07-.025.126-.067.23-.056-.028.111.085.084.056.196-.069-.001-.138-.003-.17.03-.022.107.048.122.029.229-.073-.005-.139-.005-.17.03.006.073.066.1.17.084-.013.119-.136.13-.17.227.198.068.535.025.711-.028-.056.142.092.075.085.17-.28-.143-.29.115-.626.058-.041.036-.029.123-.029.2.252.13.624.28.454.738-.4.066-.847-.22-1.08.03.167.347-.038.69.028 1.027.17.044.416.016.51.139-.085.079-.17.154-.17.315-.419.094-.362.667-.626.913-.514.192-.65.758-.942 1.164.246.25.13.806-.028 1.058.044.098.12.164.085.34.085.136.233.205.371.287.199.45.422 1.026.91 1.08.214.025.324-.161.513-.17.183-.007.236.128.428.14.293-.078.56-.333.857-.282.245.043.415.472.711.254.104.199.063.599-.031.769.11.368.387.566.456.97.539.38-.078.95-.028 1.454.025.251.252.44.287.711.063.529.223.916.484 1.31.004.082-.097.056-.056.17.11.444.58-.022.853.085.274-.174.592-.3.683-.655.366-.139.384-.624.57-.942h.142c.103-.15.113-.472 0-.623.129-.27.374-.425.598-.598.012-.359.151-.58.057-.856-.045-.132-.211-.199-.227-.315-.07-.45.523-.567.57-1.052.075-.019.107-.082.17-.113.091-.5.444-.888.4-1.426-.214.104-.479.13-.684.173-.075-.091.05-.16.085-.23-.232-.356-.708-.743-.626-1.225-.19-.248-.4-.626-.429-.938.177-.038.233.274.287.454.025.116.151.135.198.23.026.525.428.67.454 1.196.113.088.097.302.258.34.113.019.082-.107.085-.199.305-.207.677-.346.938-.598 0-.21.132-.233.116-.4-.018-.182-.258-.248-.258-.453.148.013.249.073.384.1a10.478 10.478 0 0 1-5.645 12.64c-.273-.012-.5.013-.632.19zM6.975 5.455c-.08-.025.025-.1.025-.142.11.014.141-.052.258-.028-.016.136-.208.096-.283.17zm.141.34c.066.01.117.035.17.06-.025.06-.208.038-.17-.06zm-1.454-.482c-.098-.151-.035-.345 0-.513.003-.02-.007-.026-.02-.028.18-.163.366-.315.555-.467-.035.27-.243.367-.394.523.073.156.085.472-.141.485zm-.227 1.084c-.123-.11-.151.06-.17.141-.028-.084-.07-.16-.088-.258.088.041.104-.012.23 0-.003.054.034.06.028.117zm-.626-.258c.04-.054.12-.07.141-.142.092.025.148.079.142.198-.098-.022-.107.045-.199.029.032-.089.029-.092-.084-.085zm-.086.116c-.05-.022-.003-.053 0-.088.05.022.004.05 0 .088zM4.06 9.41c-.006.066.041.078.035.141-.098-.006-.189-.003-.173.104.062.167.23.088.352.154-.22.029-.186.535-.548.463a1.847 1.847 0 0 1-.069-.274c.032-.006.073-.013.126-.028-.031-.176-.1-.22-.16-.205a1.62 1.62 0 0 1 .003-.249c.189.01.293-.068.434-.106zm1.776 1.797c-.003-.069.044-.085.057-.141.103.022.034.154-.057.141zm16.377-2.106c-.091.139-.126.328-.371.315-.063-.079-.082-.205-.085-.343-.054-.054-.104-.01-.17 0-.048-.183-.164-.293-.174-.513.309.084.243.535.545.626.123.01.145-.082.255-.085zm-.771-2.298c0 .006 0 .013.003.019l.07.094c.012.019.021.038.03.054.07.107.123.226.127.393-.432.019-.599-.315-.454-.711a1.712 1.712 0 0 1-.425-.73c.23.28.447.575.649.88zm-3.045 1.3c-.45-.157-.705-.51-1.14-.683.067-.233-.132-.274-.056-.428-.085-.032-.167-.06-.23-.114-.085.01-.126.063-.198.088-.356-.044-.67-.075-.998 0-.306.067-.614.312-.91.057.368-.022.63-.117.825-.315-.063-.481.362-.475.428-.828.27.101.478.029.683-.084.23.358.75.428.854.912-.149.026-.277.073-.425-.028-.054.167.132.318.226.428.088.022.104-.031.17-.028.013-.1-.01-.16-.028-.23.085 0 .145.085.202.032.015-.088.078-.133.17-.145.018-.104-.063-.11-.057-.198.094 0 .139.135.226.056.01-.255-.27-.223-.31-.428.17-.05.223.022.339.088.07.47.243.838.627.995.047.022.047-.132 0-.113.028-.088.078.031.113.028.07.01-.016-.13.088-.085-.072-.227-.116-.309-.116-.598.223 0 .204.346.2.485.133.182.328.44.656.34.1-.006.091.097.17.113.123 0 .182-.066.315-.057-.032.271-.007.485-.057.769-.558-.044-1.102-.089-1.395-.454-.085.085-.327.016-.4.11-.022.14.044.186.028.315zM15.69 4.572c.088-.041.04.165-.028.141-.013-.067.05-.061.028-.141zm3.674 1.825c-.054-.07-.098-.148-.17-.202.091-.144.151-.32.255-.456.135-.01.129.116.286.085-.034.084-.01.097.026.173.125-.063.254.003.374.028.022-.11-.063-.11-.116-.145.044-.056.201-.006.258-.056-.01.066.006.11.056.116.004.06-.1.013-.141.025.019.06.053.101.091.142a.322.322 0 0 0-.12.028c-.015.205.101.271.212.346.069-.056.192-.06.26-.12a.38.38 0 0 1 .152.234c-.51.013-.803-.371-1.423-.198z"/></svg><svg height="24" viewBox="0 0 24 24" width="24" x="179" y="210"><path fill="#FFF" d="M24 2.5L14.5 12l9.5 9.5-2.5 2.5-9.5-9.5L2.5 24 0 21.5 9.5 12 0 2.5 2.5 0 12 9.5 21.5 0 24 2.5z"/></svg><svg height="24" viewBox="0 0 24 24" width="24" x="208" y="210"><path d="M.057 24l1.687-6.163a11.867 11.867 0 0 1-1.587-5.946C.16 5.335 5.495 0 12.05 0a11.817 11.817 0 0 1 8.413 3.488 11.824 11.824 0 0 1 3.48 8.414c-.003 6.557-5.338 11.892-11.893 11.892a11.9 11.9 0 0 1-5.688-1.448L.057 24zm6.597-3.807c1.676.995 3.276 1.591 5.392 1.592 5.448 0 9.886-4.434 9.889-9.885.002-5.462-4.415-9.89-9.881-9.892-5.452 0-9.887 4.434-9.889 9.884-.001 2.225.651 3.891 1.746 5.634l-.999 3.648 3.742-.981zm11.387-5.464c-.074-.124-.272-.198-.57-.347-.297-.149-1.758-.868-2.031-.967-.272-.099-.47-.149-.669.149-.198.297-.768.967-.941 1.165-.173.198-.347.223-.644.074-.297-.149-1.255-.462-2.39-1.475-.883-.788-1.48-1.761-1.653-2.059-.173-.297-.018-.458.13-.606.134-.133.297-.347.446-.521.151-.172.2-.296.3-.495.099-.198.05-.372-.025-.521-.075-.148-.669-1.611-.916-2.206-.242-.579-.487-.501-.669-.51l-.57-.01c-.198 0-.52.074-.792.372s-1.04 1.016-1.04 2.479 1.065 2.876 1.213 3.074c.149.198 2.095 3.2 5.076 4.487.709.306 1.263.489 1.694.626.712.226 1.36.194 1.872.118.571-.085 1.758-.719 2.006-1.413.248-.695.248-1.29.173-1.414z"/></svg><svg height="20" viewBox="0 0 20 20" width="20" x="184" y="182"><path d="M16.2 12.8v2.7c0 1.4-1.1 2.5-2.5 2.5H2.5C1.1 18 0 16.9 0 15.5v-10C0 4.1 1.1 3 2.5 3h7v1c-1.4.3-2.7.8-3.7 1.5H2.5v9.9h11.2v-1l2.5-1.6zM19.9 8c0 .1-.1.3-.2.3l-7.9 5.4c-.1 0-.1.1-.2.1h-.2c-.1-.1-.2-.2-.2-.4v-2.9c-5 .1-6.2 1.8-6.2 1.8-.1.1-.2.2-.3.2h-.2c-.2 0-.3-.2-.3-.4 0-.1-.2-2.6 1.7-4.5 1.2-1.3 3-2 5.4-2.1V2.6c0-.2.1-.3.2-.4.1-.1.3-.1.4 0l7.9 5.4c.1.1.1.3.1.4z"/></svg><svg height="20" viewBox="0 0 20 20" width="20" x="209" y="182"><path d="M20 3.6c-.5.8-1.2 1.5-2 2.1v.5c0 .9-.1 1.8-.3 2.7-.2.9-.6 1.8-1 2.7s-1 1.7-1.7 2.4c-.7.8-1.4 1.4-2.3 2-.8.6-1.8 1-2.9 1.3-1.1.3-2.3.5-3.5.5-2.5 0-4.6-.6-6.3-1.7.3 0 .6.1 1 .1.9 0 1.8-.2 2.7-.5s1.7-.8 2.4-1.4c-.9 0-1.7-.3-2.4-.8s-1.2-1.2-1.4-2c.3.1.5.1.8.1.4 0 .7 0 1.1-.1-.9-.2-1.7-.7-2.4-1.4s-1-1.7-1-2.7c.6.3 1.2.5 1.9.5-.6-.4-1.1-.9-1.4-1.5S.8 5.2.8 4.5s.2-1.3.6-2c1 1.3 2.3 2.2 3.7 3 1.5.7 3 1.1 4.7 1.2 0-.2-.1-.6-.1-.9 0-1.1.4-2.1 1.2-2.9s1.8-1.2 2.9-1.2c1.2 0 2.2.4 3 1.3.9-.2 1.8-.5 2.6-1-.3 1-.9 1.7-1.8 2.3.8-.2 1.6-.4 2.4-.7z"/></svg><svg height="20" viewBox="0 0 20 20" width="20" x="246" y="5"><path fill="#FFF" d="M20 3.6c-.5.8-1.2 1.5-2 2.1v.5c0 .9-.1 1.8-.3 2.7-.2.9-.6 1.8-1 2.7s-1 1.7-1.7 2.4c-.7.8-1.4 1.4-2.3 2-.8.6-1.8 1-2.9 1.3-1.1.3-2.3.5-3.5.5-2.5 0-4.6-.6-6.3-1.7.3 0 .6.1 1 .1.9 0 1.8-.2 2.7-.5s1.7-.8 2.4-1.4c-.9 0-1.7-.3-2.4-.8s-1.2-1.2-1.4-2c.3.1.5.1.8.1.4 0 .7 0 1.1-.1-.9-.2-1.7-.7-2.4-1.4s-1-1.7-1-2.7c.6.3 1.2.5 1.9.5-.6-.4-1.1-.9-1.4-1.5S.8 5.2.8 4.5s.2-1.3.6-2c1 1.3 2.3 2.2 3.7 3 1.5.7 3 1.1 4.7 1.2 0-.2-.1-.6-.1-.9 0-1.1.4-2.1 1.2-2.9s1.8-1.2 2.9-1.2c1.2 0 2.2.4 3 1.3.9-.2 1.8-.5 2.6-1-.3 1-.9 1.7-1.8 2.3.8-.2 1.6-.4 2.4-.7z"/></svg><svg height="20" viewBox="0 0 20 20" width="20" x="246" y="30"><path d="M16.7 12.6V17H3.3v-4.4H.7v5.7c0 .7.6 1.3 1.3 1.3h16c.7 0 1.3-.6 1.3-1.3v-5.7h-2.6zm-6.9-.4L6.1 7.7s-.6-.5 0-.5h2.1V.7s-.1-.3.4-.3h2.9c.3 0 .3.3.3.3v6.4h1.9c.7 0 .2.6.2.6s-3.1 4.2-3.6 4.6c-.2.2-.5-.1-.5-.1z"/></svg><svg height="20" viewBox="0 0 20 20" width="20" x="246" y="55"><path fill="#27346A" d="M15.8 1.7C14.9.7 13.3.2 11.2.2H5.1c-.4.1-.8.4-.8.8L1.8 17c-.1.3.2.6.5.6H6l.9-6v.2c.1-.4.4-.7.9-.7h1.8c3.5 0 6.2-1.4 7-5.5 0-.1 0-.2.1-.4-.1-.1-.1-.1 0 0 .2-1.5-.1-2.5-.9-3.5"/><path fill="#27346A" d="M8.4 4.7c.1 0 .2-.1.3-.1h4.7c.6 0 1.1 0 1.6.1.1 0 .3 0 .4.1.2 0 .4.1.6.2.2.1.5.2.7.3.2-1.5 0-2.5-.8-3.5C15 .8 13.4.3 11.3.3H5.1c-.4 0-.8.3-.8.7L1.8 17c-.1.3.2.6.5.6H6L8 5.2c0-.2.1-.4.4-.5z"/><path fill="#2790C3" d="M16.6 5.6c-.8 4.1-3.5 5.5-7 5.5H7.8c-.4 0-.8.3-.9.7l-1.2 7.4c0 .3.2.5.4.5h3.1c.4 0 .7-.3.7-.6v-.2l.6-3.8v-.2c.1-.4.4-.6.7-.6h.8c3.1 0 5.4-1.2 6.1-4.8.3-1.5.1-2.7-.6-3.6-.2-.3-.5-.5-.9-.7v.4z"/><path fill="#1F264F" d="M15.8 4.9c-.1 0-.2-.1-.4-.1-.1 0-.3-.1-.4-.1-.5-.1-1-.1-1.6-.1H8.7c-.1 0-.2 0-.3.1-.3.1-.4.3-.4.5l-1 6.4v.2c.1-.4.4-.7.9-.7h1.8c3.5 0 6.2-1.4 7-5.5 0-.1 0-.2.1-.4-.4-.1-.6-.2-.8-.3h-.2"/></svg><svg height="20" viewBox="0 0 20 20" width="20" x="246" y="80"><circle cx="2.7" cy="2.7" r="2.3"/><path d="M.7 6.8h4v12.8h-4zM14.8 6.5c-1.9 0-3.2 1.1-3.8 2.1V6.8H7.2v12.8h4v-6.3c0-1.7.3-3.3 2.4-3.3 2 0 2.1 1.9 2.1 3.4v6.2h4v-7c-.1-3.5-.9-6.1-4.9-6.1z"/></svg><svg height="20" viewBox="0 0 20 20" width="20" x="246" y="105"><g fill="#fff"><path d="M11.4 7.3c-.2-.2-.5-.3-.8-.3-.6-.1-1.1.3-1.6 1.1s-.7 1.5-.7 2.3c0 .4.1.8.3 1.1.2.3.5.4.9.4.6 0 1.2-.5 1.6-1.5.4-1 .6-1.7.6-2.3 0-.3-.1-.6-.3-.8z"/><path d="M18 0H2C.9 0 0 .9 0 2v16c0 1.1.9 2 2 2h16c1.1 0 2-.9 2-2V2c0-1.1-.9-2-2-2zm-7.2 12.5c-.5.5-1.1.7-1.8.7s-1.3-.3-1.8-.8-.7-1.3-.7-2.2c0-1.1.4-2.1 1.1-3.1.7-1 1.7-1.4 2.7-1.4.6 0 1.1.2 1.5.5.3.3.4.6.5.9l.2-1.1h1.7L13 9.9c-.1.3-.2.6-.2.7 0 .2-.1.3-.1.4 0 .2.1.4.2.5.1.2.3.2.6.2.5 0 1-.3 1.6-1 .5-.7.8-1.6.8-2.7 0-1.7-.7-2.8-2.1-3.6-.9-.5-1.9-.7-3-.7-2 0-3.7.6-4.9 1.9-1.2 1.3-1.7 2.6-1.7 4.2 0 1.8.7 3.2 2 4.2 1.2.9 2.6 1.4 4.3 1.4 1.1 0 2.2-.2 3.2-.6.5-.2 1.1-.5 1.7-.9l.2-.2.7 1c-.9.7-1.8 1.2-2.8 1.5-1 .3-2 .5-3.1.5-2.5 0-4.4-.8-5.8-2.3-1.3-1.4-1.8-2.9-1.8-4.7 0-2 .7-3.7 2.1-5 1.5-1.5 3.4-2.2 5.7-2.2 1.9 0 3.5.5 4.7 1.5 1.3 1 2 2.4 2 4.2 0 1.4-.4 2.5-1.2 3.5-.8 1-1.8 1.5-2.8 1.5-.6 0-1-.2-1.3-.5-.3-.3-.4-.6-.4-1v-.1-.2c-.3.5-.5.8-.8 1.1z"/></g></svg><svg height="20" viewBox="0 0 20 20" width="20" x="246" y="130"><path d="M11.4 7.3c-.2-.2-.5-.3-.8-.3-.6-.1-1.1.3-1.6 1.1s-.7 1.5-.7 2.3c0 .4.1.8.3 1.1.2.3.5.4.9.4.6 0 1.2-.5 1.6-1.5.4-1 .6-1.7.6-2.3 0-.3-.1-.6-.3-.8z"/><path d="M18 0H2C.9 0 0 .9 0 2v16c0 1.1.9 2 2 2h16c1.1 0 2-.9 2-2V2c0-1.1-.9-2-2-2zm-7.2 12.5c-.5.5-1.1.7-1.8.7s-1.3-.3-1.8-.8-.7-1.3-.7-2.2c0-1.1.4-2.1 1.1-3.1.7-1 1.7-1.4 2.7-1.4.6 0 1.1.2 1.5.5.3.3.4.6.5.9l.2-1.1h1.7L13 9.9c-.1.3-.2.6-.2.7 0 .2-.1.3-.1.4 0 .2.1.4.2.5.1.2.3.2.6.2.5 0 1-.3 1.6-1 .5-.7.8-1.6.8-2.7 0-1.7-.7-2.8-2.1-3.6-.9-.5-1.9-.7-3-.7-2 0-3.7.6-4.9 1.9-1.2 1.3-1.7 2.6-1.7 4.2 0 1.8.7 3.2 2 4.2 1.2.9 2.6 1.4 4.3 1.4 1.1 0 2.2-.2 3.2-.6.5-.2 1.1-.5 1.7-.9l.2-.2.7 1c-.9.7-1.8 1.2-2.8 1.5-1 .3-2 .5-3.1.5-2.5 0-4.4-.8-5.8-2.3-1.3-1.4-1.8-2.9-1.8-4.7 0-2 .7-3.7 2.1-5 1.5-1.5 3.4-2.2 5.7-2.2 1.9 0 3.5.5 4.7 1.5 1.3 1 2 2.4 2 4.2 0 1.4-.4 2.5-1.2 3.5-.8 1-1.8 1.5-2.8 1.5-.6 0-1-.2-1.3-.5-.3-.3-.4-.6-.4-1v-.1-.2c-.3.5-.5.8-.8 1.1z"/></svg><svg height="20" viewBox="0 0 20 20" width="20" x="246" y="155"><path fill="#FFF" d="M18 0H2C.9 0 0 .9 0 2v16c0 1.1.9 2 2 2h16c1.1 0 2-.9 2-2V2c0-1.1-.9-2-2-2zm-3 5h-1.4c-1.1 0-1.1.9-1.1 1.6v2.1h2.4l-.3 2.5h-2.1v6.2H10v-6.2H7.5V8.8H10V6.4C10 4.2 11.2 3 13.2 3c.9-.1 1.8 0 1.8 0v2z"/></svg><svg height="20" viewBox="0 0 20 20" width="20" x="246" y="180"><path d="M18 0H2C.9 0 0 .9 0 2v16c0 1.1.9 2 2 2h16c1.1 0 2-.9 2-2V2c0-1.1-.9-2-2-2zm-3 5h-1.4c-1.1 0-1.1.9-1.1 1.6v2.1h2.4l-.3 2.5h-2.1v6.2H10v-6.2H7.5V8.8H10V6.4C10 4.2 11.2 3 13.2 3c.9-.1 1.8 0 1.8 0v2z"/></svg><svg height="20" viewBox="0 0 20 20" width="20" x="246" y="205"><path d="M9.2 18.3c-2.1 2.1-5.5 2.1-7.6 0-2.1-2.1-2.1-5.5 0-7.6l2.8-2.8c0 1.1.1 2.1.5 3.1l-1.5 1.5c-1.1 1.1-1.1 2.9 0 4.1s2.9 1.1 4.1 0l3.1-3.1c1.1-1.1 1.1-2.9 0-4.1-.5-.5-.5-1.3 0-1.8s1.3-.5 1.8 0c2.1 2.1 2.1 5.5 0 7.6l-3.2 3.1zm6.3-6.2c.1-1.1 0-2.1-.4-3.1l1.5-1.5c1.1-1.1 1.1-2.9 0-4.1-1.1-1.1-2.9-1.1-4.1 0L9.4 6.5c-1.1 1.1-1.1 2.9 0 4.1.5.5.5 1.3 0 1.7-.5.5-1.3.5-1.7 0-2.1-2.1-2.1-5.5 0-7.6l3.1-3.1c2.1-2.1 5.5-2.1 7.6 0 2.1 2.1 2.1 5.5 0 7.6l-2.9 2.9z"/></svg><svg height="20" viewBox="0 0 20 20" width="20" x="5" y="240"><path fill="#55acee" d="M20 3.6c-.5.8-1.2 1.5-2 2.1v.5c0 .9-.1 1.8-.3 2.7-.2.9-.6 1.8-1 2.7s-1 1.7-1.7 2.4c-.7.8-1.4 1.4-2.3 2-.8.6-1.8 1-2.9 1.3-1.1.3-2.3.5-3.5.5-2.5 0-4.6-.6-6.3-1.7.3 0 .6.1 1 .1.9 0 1.8-.2 2.7-.5s1.7-.8 2.4-1.4c-.9 0-1.7-.3-2.4-.8s-1.2-1.2-1.4-2c.3.1.5.1.8.1.4 0 .7 0 1.1-.1-.9-.2-1.7-.7-2.4-1.4s-1-1.7-1-2.7c.6.3 1.2.5 1.9.5-.6-.4-1.1-.9-1.4-1.5S.8 5.2.8 4.5s.2-1.3.6-2c1 1.3 2.3 2.2 3.7 3 1.5.7 3 1.1 4.7 1.2 0-.2-.1-.6-.1-.9 0-1.1.4-2.1 1.2-2.9s1.8-1.2 2.9-1.2c1.2 0 2.2.4 3 1.3.9-.2 1.8-.5 2.6-1-.3 1-.9 1.7-1.8 2.3.8-.2 1.6-.4 2.4-.7z"/></svg><svg height="20" viewBox="0 0 20 20" width="20" x="30" y="240"><path d="M17.1 0c.8 0 1.5.3 2.1.9.5.5.8 1.2.8 2v14.2c0 .8-.3 1.5-.9 2.1-.6.6-1.3.9-2.1.9H2.9c-.8 0-1.5-.3-2.1-.9S0 17.9 0 17.1V2.9C0 2.1.3 1.4.9.8s1.2-.8 2-.8h14.2zM10 6.2c-1 0-1.9.4-2.7 1.1s-1 1.7-1 2.7.4 1.9 1.1 2.7c.7.7 1.6 1.1 2.7 1.1 1 0 1.9-.4 2.7-1.1.7-.7 1.1-1.6 1.1-2.7s-.4-1.9-1.1-2.7c-.9-.7-1.8-1.1-2.8-1.1zm7.9 11.3V8.7h-2.2c.1.4.1.8.1 1.2 0 1.1-.3 2-.8 2.9s-1.2 1.6-2.1 2.1c-.9.5-1.9.8-2.9.8s-2-.1-2.9-.7c-.9-.5-1.6-1.2-2.1-2.1-.6-.9-.8-1.8-.8-2.9 0-.4 0-.9.1-1.2H2.1v8.7c0 .1 0 .2.1.3s.2.1.3.1h15c.1 0 .2 0 .3-.1.1-.1.1-.2.1-.3zm0-12.5V2.5c0-.1 0-.2-.1-.3-.1-.1-.2-.1-.3-.1H15c-.1 0-.2 0-.3.1-.1.1-.1.2-.1.3V5c0 .1 0 .2.1.3.1.1.2.1.3.1h2.5c.1 0 .2 0 .3-.1.1-.1.1-.2.1-.3z"/></svg><svg height="20" viewBox="0 0 20 20" width="20" x="55" y="240"><path fill="#FFF" d="M10 2.9c3 0 5 0 6 .1 1.4.1 2.3.4 2.9.8.5.4.8 1.1 1 2 0 .7.1 2 .1 3.9v.3c0 2 0 3.3-.1 3.9-.1 1-.4 1.7-.9 2.1-.5.5-1.4.8-2.7.9-1 .1-2.9.2-5.8.2H10c-3 0-5 0-6-.1-1.4-.1-2.3-.4-2.9-.8-.5-.4-.8-1.1-1-2 0-.7-.1-2-.1-3.9V10c0-2 0-3.3.1-3.9.1-1 .4-1.7.9-2.1.5-.5 1.4-.8 2.7-.9 1-.1 2.9-.2 5.8-.2h.5zM7.5 13.7l6.2-3.7-6.2-3.8v7.5z"/></svg><svg height="20" viewBox="0 0 20 20" width="20" x="80" y="240"><g fill="#FFF"><path d="M9.2 3.1c-.3-.3-.6-.4-1-.4-.5 0-1 .2-1.3.6-.4.5-.5 1-.5 1.5 0 .7.2 1.4.6 2.2.2.4.5.7.8.9.3.3.7.4 1.1.4.5 0 .9-.2 1.3-.6.2-.2.3-.5.3-.8v-.7c0-.8-.2-1.6-.6-2.3-.1-.3-.4-.6-.7-.8zM9.1 11.4h-.8c-.4.1-.8.1-1.2.3-.1 0-.2.1-.4.2s-.4.2-.6.4c-.2.2-.3.4-.5.6-.1.2-.2.5-.2.9 0 .7.3 1.3.9 1.7.6.4 1.4.7 2.4.7.9 0 1.6-.2 2.1-.6.6-.4.8-.9.8-1.6 0-.5-.2-.9-.5-1.3s-.9-.8-1.6-1.3h-.4z"/><path d="M18 0H2C.9 0 0 .9 0 2v16c0 1.1.9 2 2 2h16c1.1 0 2-.9 2-2V2c0-1.1-.9-2-2-2zm-6.7 3.3c.1.2.3.2.4.4.2.3.3.5.4.8.1.3.1.6.1 1 0 .7-.2 1.2-.5 1.7-.1.2-.3.4-.5.6s-.4.3-.6.5c-.1.1-.2.3-.3.4-.1.2-.2.3-.2.6 0 .2.1.4.2.5l.3.3.7.5c.4.3.8.7 1.1 1.1.3.4.4 1 .5 1.6 0 1-.4 1.8-1.3 2.5-.8.8-2.1 1.2-3.7 1.2-1.4 0-2.4-.3-3.1-.9-.7-.5-1-1.2-1-1.9 0-.4.1-.8.3-1.2.2-.4.6-.8 1.2-1.2.6-.4 1.3-.6 2-.7.7-.1 1.2-.2 1.7-.2-.1-.2-.3-.4-.4-.6-.1-.2-.2-.5-.2-.7s0-.3.1-.4c0-.1.1-.2.1-.3H8c-1 0-1.8-.3-2.4-1-.6-.7-.9-1.4-.9-2.1 0-1 .4-1.8 1.2-2.6.6-.5 1.1-.8 1.7-.9.7-.2 1.3-.3 1.8-.3h3.9l-1.2 1.2h-1.2c.1 0 .3 0 .4.1zm7.5 1.9H17V7h-1.3V5.2h-2V3.8h1.8V2h1.3v1.8h1.8v1.4z"/></g></svg><svg height="20" viewBox="0 0 20 20" width="20" x="105" y="240"><path fill="#FFF" d="M17.1 0c.8 0 1.5.3 2.1.9.5.5.8 1.2.8 2v14.2c0 .8-.3 1.5-.9 2.1-.6.6-1.3.9-2.1.9H2.9c-.8 0-1.5-.3-2.1-.9S0 17.9 0 17.1V2.9C0 2.1.3 1.4.9.8s1.2-.8 2-.8h14.2zM10 6.2c-1 0-1.9.4-2.7 1.1s-1 1.7-1 2.7.4 1.9 1.1 2.7c.7.7 1.6 1.1 2.7 1.1 1 0 1.9-.4 2.7-1.1.7-.7 1.1-1.6 1.1-2.7s-.4-1.9-1.1-2.7c-.9-.7-1.8-1.1-2.8-1.1zm7.9 11.3V8.7h-2.2c.1.4.1.8.1 1.2 0 1.1-.3 2-.8 2.9s-1.2 1.6-2.1 2.1c-.9.5-1.9.8-2.9.8s-2-.1-2.9-.7c-.9-.5-1.6-1.2-2.1-2.1-.6-.9-.8-1.8-.8-2.9 0-.4 0-.9.1-1.2H2.1v8.7c0 .1 0 .2.1.3s.2.1.3.1h15c.1 0 .2 0 .3-.1.1-.1.1-.2.1-.3zm0-12.5V2.5c0-.1 0-.2-.1-.3-.1-.1-.2-.1-.3-.1H15c-.1 0-.2 0-.3.1-.1.1-.1.2-.1.3V5c0 .1 0 .2.1.3.1.1.2.1.3.1h2.5c.1 0 .2 0 .3-.1.1-.1.1-.2.1-.3z"/></svg><svg height="16" viewBox="0 0 20 16" width="20" x="221" y="133"><path fill="#FFF" d="M18.4 2h-5.7L11.8.7c-.2-.5-.6-.7-1-.7H8.3c-.5 0-.9.3-1 .7L6.4 2H4.5V1h-2v1H.9c-.6 0-.4.7-.4 1.3v11c0 .6-.2 1.7.4 1.7h17.5c.6 0 1.1-1.1 1.1-1.7v-11c0-.6-.5-1.3-1.1-1.3zM9.6 13.1c-2.4 0-4.3-1.9-4.3-4.3s1.9-4.3 4.3-4.3 4.3 1.9 4.3 4.3-1.9 4.3-4.3 4.3zm6.9-6.5c-.8 0-1.4-.6-1.4-1.4s.7-1.5 1.5-1.5 1.5.7 1.5 1.5-.7 1.4-1.6 1.4z"/></svg><svg height="16" viewBox="0 0 20 16" width="20" x="152" y="159"><path fill="#FFF" d="M19.6 0h-6.9c-1.3 0-1.5.5-1.5 1.8v-.1C11.2.4 9.3 0 8 0H1v13l2.3 1.9H8s.6.9 1.1.9h2.3c.7 0 1.1-.9 1.1-.9h4.7l2.3-1.9v-.3L19.6 0zM1.9.9h6c.7 0 1.4.1 1.4.7V12H1.9V.9zm16.8 11.2h-6.5V1.8c0-.7-.1-.8.6-.8h6v11.1z"/><path fill="#FFF" d="M13.1 4.7h4.7v.9h-4.7zM13.1 1.9h4.7v.9h-4.7zM13.1 6.5h4.7v1.9h-4.7zM13.1 10.2h4.7v.9h-4.7zM2.8 4.7h4.7v.9H2.8zM2.8 1.9h4.7v.9H2.8zM2.8 6.5h4.7v1.9H2.8zM2.8 10.2h4.7v.9H2.8z"/></svg><svg height="16" viewBox="0 0 20 16" width="20" x="177" y="159"><path d="M19.6 0h-6.9c-1.3 0-1.5.5-1.5 1.8v-.1C11.2.4 9.3 0 8 0H1v13l2.3 1.9H8s.6.9 1.1.9h2.3c.7 0 1.1-.9 1.1-.9h4.7l2.3-1.9v-.3L19.6 0zM1.9.9h6c.7 0 1.4.1 1.4.7V12H1.9V.9zm16.8 11.2h-6.5V1.8c0-.7-.1-.8.6-.8h6v11.1z"/><path d="M13.1 4.7h4.7v.9h-4.7zM13.1 1.9h4.7v.9h-4.7zM13.1 6.5h4.7v1.9h-4.7zM13.1 10.2h4.7v.9h-4.7zM2.8 4.7h4.7v.9H2.8zM2.8 1.9h4.7v.9H2.8zM2.8 6.5h4.7v1.9H2.8zM2.8 10.2h4.7v.9H2.8z"/></svg><svg height="17.2" viewBox="0 0 18 18" width="17.5" x="130" y="240"><path fill="#FFF" d="M6.9 1.1c3.1 0 5.6 2.5 5.6 5.6s-2.5 5.6-5.6 5.6c-3.1 0-5.6-2.5-5.6-5.6s2.5-5.6 5.6-5.6m0-1.1a6.7 6.7 0 1 0 6.7 6.7c-.1-3.8-3-6.7-6.7-6.7zM10.97 13.303l2.546-2.545 3.89 3.889-2.546 2.545z"/></svg><svg height="17.2" viewBox="0 0 18 18" width="17.5" x="153" y="240"><path d="M6.9 1.1c3.1 0 5.6 2.5 5.6 5.6s-2.5 5.6-5.6 5.6c-3.1 0-5.6-2.5-5.6-5.6s2.5-5.6 5.6-5.6m0-1.1a6.7 6.7 0 1 0 6.7 6.7c-.1-3.8-3-6.7-6.7-6.7zM10.97 13.303l2.546-2.545 3.89 3.889-2.546 2.545z"/></svg><svg height="16" viewBox="0 0 17 16" width="16.4" x="202" y="159"><path d="M14.4 5.9l-3.3 3.3V6.7c0-.5-.6-.7-1.1-.7H.8c-.5 0-.7.2-.7.7v8.1c0 .6.1 1.1.7 1.1H10c.6 0 1.1-.6 1.1-1.1v-2.5l3.3 3.3c.7.5 1.7 0 1.7-.8V6.7c0-.8-1-1.3-1.7-.8z"/><circle cx="2.3" cy="2.4" r="2.3"/><circle cx="8.5" cy="2.4" r="2.3"/></svg><svg height="16" viewBox="0 0 17 16" width="16.4" x="223" y="159"><path fill="#FFF" d="M14.4 5.9l-3.3 3.3V6.7c0-.5-.6-.7-1.1-.7H.8c-.5 0-.7.2-.7.7v8.1c0 .6.1 1.1.7 1.1H10c.6 0 1.1-.6 1.1-1.1v-2.5l3.3 3.3c.7.5 1.7 0 1.7-.8V6.7c0-.8-1-1.3-1.7-.8z"/><circle fill="#FFF" cx="2.3" cy="2.4" r="2.3"/><circle fill="#FFF" cx="8.5" cy="2.4" r="2.3"/></svg><svg height="16" viewBox="0 0 16 16" width="16" x="175" y="240"><path fill="#010101" d="M5.1 15L4 13.9 9.8 8 3.9 2.1 5.1 1l7 7-7 7z"/></svg><svg height="16" viewBox="0 0 16 16" width="16" x="196" y="240"><g fill="#FFF"><path d="M3.3 10.7l1 5h2.1l-1-5zM0 6.7c0 2.5 2 3 2 3h5v-6H2s-2 .4-2 3zM14.6.4L8 3.7v6l6.6 3.3c.7.3 1.4-.2 1.4-.9V1.3c0-.7-.8-1.2-1.4-.9z"/></g></svg><svg height="16" viewBox="0 0 16 16" width="16" x="217" y="240"><path d="M15 4.6l1-.5-8-4-8 4 8 4 6-3v8.4l-.6 2.4h2.2l-.6-2.4z"/><path d="M3 6.6v4s1.4 2.5 5 2.5 5-2.5 5-2.5V7.1L8 9.6l-5-3z"/></svg><svg height="16" viewBox="0 0 16 16" width="16" x="238" y="240"><path fill="#FFF" d="M7 7.9L8.1 9l-4.9 4.9h4.5v1.6H.5V8.3h1.6v4.5L7 7.9zM8.3.5h7.2v7.2h-1.6V3.2L9 8.1 7.9 7l4.9-4.9H8.3V.5z"/></svg><svg height="16" viewBox="0 0 16 16" width="16" x="271" y="5"><path fill="#FFF" d="M3 .5v2h10V13c0 .8.7 1.5 1.5 1.5S16 13.8 16 13V.5H3z"/><path fill="#FFF" d="M12 14.5v-11H0v9c0 1.7 1.3 3 3 3h10c-.5 0-1-.5-1-1zm-6-2H1v-1h5v1zm0-2H1v-1h5v1zm0-2H1v-1h5v1zm0-2H1v-1h5v1zm5 6H7v-7h4v7z"/></svg><svg height="16" viewBox="0 0 16 16" width="16" x="271" y="26"><path d="M3 .5v2h10V13c0 .8.7 1.5 1.5 1.5S16 13.8 16 13V.5H3z"/><path d="M12 14.5v-11H0v9c0 1.7 1.3 3 3 3h10c-.5 0-1-.5-1-1zm-6-2H1v-1h5v1zm0-2H1v-1h5v1zm0-2H1v-1h5v1zm0-2H1v-1h5v1zm5 6H7v-7h4v7z"/></svg><svg height="16" viewBox="0 0 16 16" width="16" x="271" y="47"><g fill="#FFF"><path d="M15 4.6l1-.5-8-4-8 4 8 4 6-3v8.4l-.6 2.4h2.2l-.6-2.4z"/><path d="M3 6.6v4s1.4 2.5 5 2.5 5-2.5 5-2.5V7.1L8 9.6l-5-3z"/></g></svg><svg height="16" viewBox="0 0 16 16" width="16" x="271" y="68"><path fill="#010101" d="M15.1 5.1l-7 7-7-7L2.2 4l5.9 6L14 4.1l1.1 1z"/></svg><svg height="16" viewBox="0 0 16 16" width="16" x="271" y="89"><path fill="#fff" d="M15.1 5.1l-7 7-7-7L2.2 4l5.9 6L14 4.1l1.1 1z"/></svg><svg height="16" viewBox="0 0 16 16" width="16" x="271" y="110"><path fill="#DF0202" d="M10.1 8l3.7-3.7c.2-.2.2-.5 0-.7l-1.4-1.4c-.1-.2-.4-.2-.7 0L8 5.9 4.3 2.2c-.2-.2-.5-.2-.8 0L2.2 3.5c-.2.2-.2.5 0 .8L5.9 8l-3.7 3.7c-.2.2-.2.5 0 .7l1.5 1.5c.2.2.5.2.7 0L8 10.1l3.7 3.7c.2.2.5.2.7 0l1.5-1.5c.2-.2.2-.5 0-.7L10.1 8z"/></svg><svg height="16" viewBox="0 0 16 16" width="16" x="271" y="131"><g fill="#FFF"><path d="M6.9 8.5l-4.3 5.4H.5l2.1-5.4H.5V2.1h6.4v6.4zM15.5 8.5l-4.3 5.4H9.1l2.1-5.4H9.1V2.1h6.4v6.4z"/></g></svg><svg height="16" viewBox="0 0 16 16" width="16" x="271" y="152"><path d="M6.9 8.5l-4.3 5.4H.5l2.1-5.4H.5V2.1h6.4v6.4zM15.5 8.5l-4.3 5.4H9.1l2.1-5.4H9.1V2.1h6.4v6.4z"/></svg><svg height="16" viewBox="0 0 16 16" width="16" x="271" y="173"><path fill="#010101" d="M8 .5c1 0 2 .2 2.9.6s1.7.9 2.4 1.6c.7.7 1.2 1.5 1.6 2.4.4.9.6 1.9.6 2.9s-.2 2-.6 2.9c-.4.9-.9 1.7-1.6 2.4-.7.7-1.5 1.3-2.4 1.6-.9.4-1.9.6-2.9.6s-2-.2-2.9-.6c-.9-.4-1.7-.9-2.4-1.6-.7-.7-1.2-1.5-1.6-2.4S.5 9 .5 8s.2-2 .6-2.9c.3-.9.9-1.7 1.6-2.4s1.5-1.3 2.4-1.6C6 .7 7 .5 8 .5zm4.3 11.8c.6-.6 1-1.2 1.3-2 .3-.7.4-1.5.4-2.3 0-1.1-.3-2.1-.8-3-.5-.9-1.3-1.7-2.2-2.2S9.1 2 8 2c-.8 0-1.6.1-2.3.4-.7.3-1.4.8-2 1.3s-1 1.2-1.3 2S2 7.2 2 8c0 1.1.3 2.1.8 3 .5.9 1.3 1.7 2.2 2.2.9.6 1.9.8 3 .8.8 0 1.6-.2 2.3-.5.8-.2 1.4-.7 2-1.2zM7.2 5.7V4.2h1.5v1.5H7.2zm0 6.1V6.6h1.5v5.2H7.2z"/></svg><svg height="16" viewBox="0 0 16 16" width="16" x="271" y="194"><path fill="#FFF" d="M12 16H4.5l-1-1H12c.8 0 1.5-.6 1.5-1.5v-12l1 .5v11.5c0 1.4-1.1 2.5-2.5 2.5z"/><path fill="#FFF" d="M1.5 0v12c0 1.1.9 2 2 2h7c1.1 0 2-.9 2-2V0h-11zm7 1h1v1h-1V1zm-2 0h1v1h-1V1zm-2 0h1v1h-1V1zm-2 0h1v1h-1V1zm8 10h-7v-1h7v1zm0-2h-7V8h7v1zm0-2h-7V6h7v1zm0-2h-7V4h7v1zm1-3h-1V1h1v1z"/></svg><svg height="16" viewBox="0 0 16 16" width="16" x="271" y="215"><path d="M12 16H4.5l-1-1H12c.8 0 1.5-.6 1.5-1.5v-12l1 .5v11.5c0 1.4-1.1 2.5-2.5 2.5z"/><path d="M1.5 0v12c0 1.1.9 2 2 2h7c1.1 0 2-.9 2-2V0h-11zm7 1h1v1h-1V1zm-2 0h1v1h-1V1zm-2 0h1v1h-1V1zm-2 0h1v1h-1V1zm8 10h-7v-1h7v1zm0-2h-7V8h7v1zm0-2h-7V6h7v1zm0-2h-7V4h7v1zm1-3h-1V1h1v1z"/></svg><svg height="16" viewBox="0 0 16 16" width="16" x="271" y="236"><path fill="#fff" d="M11 15L4 8l7-7 1.1 1.1-6 5.9 5.9 5.9-1 1.1z"/></svg><svg height="16" viewBox="0 0 16 16" width="16" x="5" y="265"><path fill="#fff" d="M5.1 15L4 13.9 9.8 8 3.9 2.1 5.1 1l7 7-7 7z"/></svg><svg height="16" viewBox="0 0 16 16" width="16" x="26" y="265"><path fill="#010101" d="M1.1 11l7-7 7 7-1.1 1.1-5.9-6L2.2 12l-1.1-1z"/></svg><svg height="16" viewBox="0 0 16 16" width="16" x="47" y="265"><ellipse fill="#FFF" cx="2.5" cy="13.6" rx="2.1" ry="2.1"/><path fill="#FFF" d="M10.5 15.7h-3c0-4-3.2-7.2-7.1-7.2v-3c5.6 0 10.1 4.6 10.1 10.2z"/><path fill="#FFF" d="M12.6 15.7C12.6 8.9 7.1 3.4.4 3.4V.3c8.4 0 15.2 6.9 15.2 15.4h-3z"/></svg><svg height="16" viewBox="0 0 16 16" width="16" x="68" y="265"><ellipse cx="2.5" cy="13.6" rx="2.1" ry="2.1"/><path d="M10.5 15.7h-3c0-4-3.2-7.2-7.1-7.2v-3c5.6 0 10.1 4.6 10.1 10.2z"/><path d="M12.6 15.7C12.6 8.9 7.1 3.4.4 3.4V.3c8.4 0 15.2 6.9 15.2 15.4h-3z"/></svg><svg height="16" viewBox="0 0 16 16" width="16" x="89" y="265"><path fill="#010101" d="M11 15L4 8l7-7 1.1 1.1-6 5.9 5.9 5.9-1 1.1z"/></svg><svg height="16" viewBox="0 0 16 16" width="16" x="110" y="265"><path d="M6.8 1.2h3v10h-3zM7 12h3v3H7z"/></svg><svg height="16" viewBox="0 0 16 16" width="16" x="131" y="265"><path fill="#010101" d="M13.3 3.8L9.1 8l4.2 4.2-1.1 1.1L8 9.1l-4.2 4.2-1.1-1.1L6.9 8 2.7 3.8l1.1-1.1L8 6.9l4.2-4.2 1.1 1.1z"/></svg><svg height="16" viewBox="0 0 16 16" width="16" x="152" y="265"><g fill="#FFF"><circle cx="8" cy="8" r="1"/><path d="M15.4 7.7c-1.5-2.2-4.3-3.6-7.2-3.6h-.1H8C5 4.1 2.3 5.5.8 7.7L.5 8l.2.3c1.5 2.2 4.3 3.6 7.2 3.6h.2c3 0 5.7-1.4 7.2-3.6l.2-.3-.1-.3zM8 10.9c-1.7 0-3-1.3-3-2.9s1.4-2.9 3-2.9 3 1.3 3 2.9-1.3 2.9-3 2.9zM1.6 8c.8-1 1.9-1.9 3.2-2.4C4.3 6.3 4 7.1 4 8s.3 1.7.8 2.4C3.5 9.9 2.4 9 1.6 8zm9.6 2.4c.5-.7.8-1.5.8-2.4s-.3-1.7-.8-2.4c1.3.5 2.4 1.4 3.2 2.4-.8 1-1.9 1.9-3.2 2.4z"/></g></svg><svg height="16" viewBox="0 0 16 16" width="16" x="173" y="265"><circle cx="8" cy="8" r="1"/><path d="M15.4 7.7c-1.5-2.2-4.3-3.6-7.2-3.6h-.1H8C5 4.1 2.3 5.5.8 7.7L.5 8l.2.3c1.5 2.2 4.3 3.6 7.2 3.6h.2c3 0 5.7-1.4 7.2-3.6l.2-.3-.1-.3zM8 10.9c-1.7 0-3-1.3-3-2.9s1.4-2.9 3-2.9 3 1.3 3 2.9-1.3 2.9-3 2.9zM1.6 8c.8-1 1.9-1.9 3.2-2.4C4.3 6.3 4 7.1 4 8s.3 1.7.8 2.4C3.5 9.9 2.4 9 1.6 8zm9.6 2.4c.5-.7.8-1.5.8-2.4s-.3-1.7-.8-2.4c1.3.5 2.4 1.4 3.2 2.4-.8 1-1.9 1.9-3.2 2.4z"/></svg><svg height="16" viewBox="0 0 16 16" width="16" x="194" y="265"><path fill="#FFF" d="M13.3 3.8L9.1 8l4.2 4.2-1.1 1.1L8 9.1l-4.2 4.2-1.1-1.1L6.9 8 2.7 3.8l1.1-1.1L8 6.9l4.2-4.2 1.1 1.1z"/></svg><svg height="16" viewBox="0 0 16 16" width="16" x="215" y="265"><path fill="#2BBD03" d="M13.9 4.5l-1.2-1.2c-.2-.2-.5-.2-.6 0l-6 6L4 7.2c-.2-.2-.5-.2-.7 0L2.1 8.4c-.1.2-.1.5 0 .7l3.5 3.5c.2.2.3.3.5.3s.3-.2.5-.3l7.3-7.3c.1-.3.1-.6 0-.8z"/></svg><svg height="16" viewBox="0 0 16 16" width="16" x="236" y="265"><path fill="#010101" d="M0 15.3L8 .5l8 14.8z"/><path fill="#FFF" d="M6.9 5.1h2.3v5.7H6.9zM6.9 11.9h2.3v2.3H6.9z"/></svg><svg height="16" viewBox="0 0 16 16" width="16" x="257" y="265"><path fill="#FFF" d="M0 15.3L8 .5l8 14.8z"/><path d="M6.9 5.1h2.3v5.7H6.9zM6.9 11.9h2.3v2.3H6.9z"/></svg><svg height="16" viewBox="0 0 16 16" width="16" x="292" y="5"><path d="M3.3 10.7l1 5h2.1l-1-5zM0 6.7c0 2.5 2 3 2 3h5v-6H2s-2 .4-2 3zM14.6.4L8 3.7v6l6.6 3.3c.7.3 1.4-.2 1.4-.9V1.3c0-.7-.8-1.2-1.4-.9z"/></svg><svg height="16" viewBox="0 0 16 16" width="16" x="292" y="26"><path fill="#fff" d="M1.1 11l7-7 7 7-1.1 1.1-5.9-6L2.2 12l-1.1-1z"/></svg><svg height="16" viewBox="0 0 16 16" width="16" x="292" y="47"><path fill="#FFF" d="M6.8 1.2h3v10h-3zM7 12h3v3H7z"/></svg><svg height="16" viewBox="0 0 13 16" width="12.1" x="292" y="68"><path fill="#FFF" d="M3.2 0L.1 3h3.1z"/><path fill="#FFF" d="M4.1 0v4h-4v12h12V0h-8zm6 13h-8v-1h8v1zm0-2h-8v-1h8v1zm0-2h-8V8h8v1zm0-2h-8V6h8v1z"/></svg><svg height="14" viewBox="0 0 14 14" width="14" x="292" y="89"><path d="M7 .2C4.2.2 1.9 2.5 1.9 5.3 1.9 7 3 8.4 4.3 10l2.9 3.9 3-4.2c1.2-1.5 2-2.6 2-4.2 0-3-2.4-5.3-5.2-5.3zm0 7.3c-1.2 0-2.2-.9-2.2-2.2s1-2.2 2.2-2.2 2.2.9 2.2 2.2-1 2.2-2.2 2.2z"/></svg><svg height="14" viewBox="0 0 14 14" width="14" x="292" y="108"><path d="M.8 1.4h1.9v12.4H.8zM3.7 1.2l9.5 3.3-9.5 3.4z"/><circle cx="1.8" cy="1.2" r="1"/></svg><svg height="14" viewBox="0 0 14 14" width="14" x="292" y="127"><path d="M13 3H7.7l.4 1H13v7.1l1-.9V3.5c0-1-1.4-.5-1.4-.5"/><path d="M11.1 5H7.3L6.2 3s-.4-1-1.1-1H2.4c-.7 0-1.2.8-1.2.8L0 4.5v7c0 1 1.1 1.5 1.1 1.5h10s.9-.5.9-1.5v-6c0-1-.9-.5-.9-.5z"/></svg><svg height="14" viewBox="0 0 14 14" width="14" x="292" y="146"><path fill="#FFF" d="M7 .2C4.2.2 1.9 2.5 1.9 5.3 1.9 7 3 8.4 4.3 10l2.9 3.9 3-4.2c1.2-1.5 2-2.6 2-4.2 0-3-2.4-5.3-5.2-5.3zm0 7.3c-1.2 0-2.2-.9-2.2-2.2s1-2.2 2.2-2.2 2.2.9 2.2 2.2-1 2.2-2.2 2.2z"/></svg><svg height="14" viewBox="0 0 14 14" width="14" x="292" y="165"><path d="M4.6.2L1.9 2.8h2.7z"/><path class="st0" d="M5.3.2v3.4H1.9v10.1H12V.2H5.3zm5.1 11H3.6v-.8h6.8v.8zm0-1.7H3.6v-.8h6.8v.8zm0-1.7H3.6V7h6.8v.8zm0-1.6H3.6v-.9h6.8v.9z"/></svg><svg height="14" viewBox="0 0 14 14" width="14" x="292" y="184"><path d="M10.1 3.7c.9-.2 1.6-.4 2.4-.7-.9-1.1-2.1-2-3.4-2.4.4 1 .7 2 1 3.1zM4 3.7c.3-1.1.6-2.2 1-3.3C3.6.9 2.4 1.8 1.5 3c.8.3 1.6.6 2.5.7zM4.9 3.9c.7.1 1.4.2 2.1.2s1.4-.1 2.1-.2C8.9 2.6 8.5 1.4 7.9.2 7.6.2 7.3.1 7 .1s-.5 0-.8.1c-.6 1.2-1 2.4-1.3 3.7zM9.3 9.1c.1-.6.2-1.4.2-2.1s-.1-1.5-.2-2.1c-.8 0-1.5.1-2.3.1s-1.5-.1-2.2-.1c-.1.6-.2 1.3-.2 2.1 0 .7.1 1.5.2 2.1.7 0 1.4-.1 2.2-.1s1.5.1 2.3.1zM13 10.1c.5-.9.8-2 .8-3.1s-.3-2.2-.8-3.2c-.9.3-1.8.7-2.7.9.1.8.2 1.5.2 2.3s-.1 1.5-.2 2.3c.9.2 1.9.4 2.7.8zM9.1 10.1c-.6-.1-1.3-.2-2-.2s-1.4.1-2.1.2c.3 1.3.7 2.5 1.3 3.7.3 0 .5.1.8.1s.6 0 .9-.1c.5-1.2.9-2.4 1.1-3.7zM10.1 10.3c-.3 1.1-.6 2.2-1 3.3 1.4-.4 2.6-1.4 3.4-2.5-.8-.4-1.6-.7-2.4-.8zM3.8 9.3c-.1-.8-.1-1.5-.1-2.3s.1-1.5.2-2.3c-1-.2-2-.5-2.9-.9C.5 4.8.2 5.9.2 7s.3 2.2.8 3.2c.9-.5 1.9-.7 2.8-.9zM4 10.3c-.9.2-1.6.4-2.5.8.9 1.2 2.1 2.1 3.5 2.5-.5-1.1-.8-2.2-1-3.3z"/></svg><svg height="14" viewBox="0 0 14 14" width="14" x="292" y="203"><g fill="#FFF"><path d="M13 3H7.7l.4 1H13v7.1l1-.9V3.5c0-1-1.4-.5-1.4-.5"/><path d="M11.1 5H7.3L6.2 3s-.4-1-1.1-1H2.4c-.7 0-1.2.8-1.2.8L0 4.5v7c0 1 1.1 1.5 1.1 1.5h10s.9-.5.9-1.5v-6c0-1-.9-.5-.9-.5z"/></g></svg><svg height="7" viewBox="0 0 13 7" width="13" x="292" y="222"><path d="M9.5 1l-.4.4 1.7 1.8H1v.6h9.8L9.1 5.6l.4.4L12 3.5z"/></svg><svg height="7" viewBox="0 0 13 7" width="13" x="292" y="234"><path d="M3.5 1l.4.4-1.7 1.8H12v.6H2.2l1.7 1.8-.4.4L1 3.5z"/></svg></svg>